<svg width="24" height="24" viewBox="0 0 24 24" fill="none" xmlns="http://www.w3.org/2000/svg">
<path d="M13.532 6.08143L17.9186 10.468M3.93041 21.2393L6.31863 20.8982C7.20447 20.7716 8.02537 20.3612 8.65812 19.7284L19.0567 9.3298C19.0688 9.31771 19.0749 9.31166 19.08 9.30653C20.2705 8.10479 20.2705 6.16827 19.08 4.96653C19.0749 4.9614 19.0688 4.95535 19.0567 4.94326V4.94326C19.0446 4.93118 19.0386 4.92513 19.0335 4.92004C17.8317 3.72953 15.8952 3.72953 14.6935 4.92004C14.6883 4.92513 14.6823 4.93118 14.6702 4.94326L4.27158 15.3419C3.63884 15.9746 3.22839 16.7955 3.10184 17.6814L2.76067 20.0696C2.66319 20.7519 3.24806 21.3368 3.93041 21.2393Z" stroke="#007AFF" stroke-width="2" stroke-linecap="round" stroke-linejoin="round"/>
<path d="M18.8581 21.3848L18.2613 23.2037C18.1785 23.456 17.8215 23.456 17.7387 23.2037L17.1419 21.3848C17.0601 21.1355 16.8645 20.9399 16.6152 20.8581L14.7963 20.2613C14.544 20.1785 14.544 19.8215 14.7963 19.7387L16.6152 19.1419C16.8645 19.0601 17.0601 18.8645 17.1419 18.6152L17.7387 16.7963C17.8215 16.544 18.1785 16.544 18.2613 16.7963L18.8581 18.6152C18.9399 18.8645 19.1355 19.0601 19.3848 19.1419L21.2037 19.7387C21.456 19.8215 21.456 20.1785 21.2037 20.2613L19.3848 20.8581C19.1355 20.9399 18.9399 21.1355 18.8581 21.3848Z" fill="#007AFF"/>
<path d="M6.85812 6.38479L6.26129 8.20368C6.17849 8.45603 5.82151 8.45603 5.73871 8.20368L5.14188 6.38479C5.06007 6.13546 4.86454 5.93993 4.61521 5.85812L2.79632 5.26129C2.54397 5.17849 2.54397 4.82151 2.79632 4.73871L4.61521 4.14188C4.86454 4.06007 5.06007 3.86454 5.14188 3.61521L5.73871 1.79632C5.82151 1.54397 6.17849 1.54397 6.26129 1.79632L6.85812 3.61521C6.93993 3.86454 7.13546 4.06007 7.38479 4.14188L9.20368 4.73871C9.45603 4.82151 9.45603 5.17849 9.20368 5.26129L7.38479 5.85812C7.13546 5.93993 6.93993 6.13546 6.85812 6.38479Z" fill="#007AFF"/>
</svg>
